<svg xmlns="http://www.w3.org/2000/svg" width="512" height="512" viewBox="0 0 512 512" version="1.1">
	<path d="M 70.300 49.857 C 63.120 52.345, 57.569 56.426, 53.969 61.861 C 47.576 71.513, 47.948 58.783, 48.237 258.052 L 48.500 439.500 50.852 444.702 C 53.826 451.276, 61.957 459.049, 68.503 461.573 C 73.372 463.450, 78.204 463.500, 256.500 463.500 L 439.500 463.500 444.702 461.148 C 451.276 458.174, 459.049 450.043, 461.573 443.497 C 463.450 438.628, 463.500 433.796, 463.500 255.500 L 463.500 72.500 460.880 66.914 C 457.550 59.813, 452.187 54.450, 445.086 51.120 L 439.500 48.500 257.500 48.277 C 84.414 48.065, 75.245 48.142, 70.300 49.857 M 73.500 65.407 C 69.820 67.048, 66.485 70.571, 65.067 74.315 C 64.359 76.184, 64.005 95.183, 64.014 130.815 L 64.028 184.500 119.264 231.248 L 174.500 277.996 256 277.996 L 337.500 277.996 392.753 231.248 L 448.007 184.500 447.753 129.323 C 447.506 75.356, 447.455 74.085, 445.438 71.384 C 444.304 69.866, 442.134 67.696, 440.615 66.562 L 437.854 64.500 257.177 64.285 C 108.128 64.107, 75.975 64.304, 73.500 65.407 M 175.036 177.663 C 168.413 179.458, 161.233 184.538, 157.636 189.974 C 156.172 192.186, 154.218 197.147, 153.294 200.998 C 151.720 207.556, 151.720 208.444, 153.294 215.002 C 156.399 227.941, 164.013 235.590, 176.855 238.672 C 183.604 240.292, 184.396 240.292, 191.145 238.672 C 203.987 235.590, 211.601 227.941, 214.706 215.002 C 216.280 208.444, 216.280 207.556, 214.706 200.998 C 211.728 188.588, 204.141 180.646, 192.343 177.589 C 185.027 175.693, 182.259 175.705, 175.036 177.663 M 319.036 177.663 C 312.413 179.458, 305.233 184.538, 301.636 189.974 C 300.172 192.186, 298.218 197.147, 297.294 200.998 C 295.720 207.556, 295.720 208.444, 297.294 215.002 C 300.399 227.941, 308.013 235.590, 320.855 238.672 C 327.604 240.292, 328.396 240.292, 335.145 238.672 C 347.987 235.590, 355.601 227.941, 358.706 215.002 C 360.280 208.444, 360.280 207.556, 358.706 200.998 C 355.728 188.588, 348.141 180.646, 336.343 177.589 C 329.027 175.693, 326.259 175.705, 319.036 177.663 M 177.450 193.407 C 167.361 197.801, 164.978 211.213, 172.882 219.118 C 179.369 225.604, 188.631 225.604, 195.118 219.118 C 207.529 206.706, 193.566 186.387, 177.450 193.407 M 321.450 193.407 C 311.361 197.801, 308.978 211.213, 316.882 219.118 C 323.369 225.604, 332.631 225.604, 339.118 219.118 C 351.529 206.706, 337.566 186.387, 321.450 193.407 M 64.238 321.927 C 64.499 437.248, 64.511 437.868, 66.562 440.615 C 67.696 442.134, 69.866 444.304, 71.385 445.438 L 74.146 447.500 253.823 447.794 C 377.880 447.997, 434.632 447.761, 437.157 447.032 C 441.614 445.744, 446.694 440.206, 447.485 435.771 C 447.805 433.972, 447.940 381.507, 447.784 319.181 L 447.500 205.863 395.500 249.921 L 343.500 293.980 256 293.980 L 168.500 293.980 116.581 249.990 C 88.025 225.795, 64.507 206, 64.319 206 C 64.130 206, 64.093 258.167, 64.238 321.927" stroke="none" fill="black" fill-rule="evenodd"/>
</svg>